<svg xmlns="http://www.w3.org/2000/svg" viewBox="0 -0.5 48 48" shape-rendering="crispEdges">
<metadata>Made with Pixels to SVG @ https://codepen.io/shshaw/pen/XbxvNj</metadata>
<path stroke="#000000" d="M39 8h5M37 9h2M44 9h1M36 10h1M45 10h1M35 11h1M45 11h1M34 12h1M45 12h1M33 13h1M45 13h1M32 14h1M45 14h1M31 15h1M45 15h1M30 16h1M38 16h2M44 16h1M19 17h11M37 17h2M43 17h1M19 18h1M42 18h2M10 19h3M20 19h1M41 19h1M43 19h1M9 20h2M12 20h1M21 20h1M40 20h1M42 20h1M9 21h1M12 21h1M22 21h1M39 21h1M41 21h1M9 22h1M12 22h1M23 22h1M39 22h6M9 23h1M12 23h1M24 23h1M44 23h1M9 24h1M12 24h1M23 24h1M43 24h1M8 25h2M12 25h1M22 25h1M42 25h1M4 26h5M12 26h1M21 26h1M41 26h1M3 27h1M12 27h1M20 27h1M40 27h1M2 28h1M13 28h7M36 28h1M39 28h1M2 29h9M37 29h2M11 30h1M37 30h1M12 31h1M37 31h1M13 32h1M30 32h1M37 32h1M14 33h1M31 33h1M37 33h1M15 34h1M31 34h2M37 34h1M16 35h1M30 35h1M33 35h1M37 35h1M17 36h1M29 36h1M34 36h1M37 36h1M18 37h11M35 37h1M37 37h1M36 38h2" />
<path stroke="#13639a" d="M39 9h5M37 10h8M36 11h9M35 12h10M34 13h11M33 14h12M32 15h11M31 16h7M40 16h2M30 17h7M39 17h2M20 18h20M21 19h18M11 20h1M22 20h16M10 21h2M23 21h14M10 22h2M24 22h12M10 23h2M25 23h11M10 24h2M24 24h12M10 25h2M23 25h13M9 26h3M22 26h14M4 27h8M21 27h15M3 28h10M20 28h16M11 29h26M12 30h25M13 31h24M14 32h14M31 32h6M15 33h12M32 33h5M16 34h10M33 34h4M34 35h3M35 36h2M36 37h1" />
<path stroke="#ffffff" d="M43 15h2M42 16h2M41 17h2M40 18h2M39 19h2M42 19h1M38 20h2M41 20h1M37 21h2M40 21h1M36 22h3M36 23h5M36 24h4M36 25h3M36 26h2M28 32h2M27 33h3M26 34h3M17 35h11M18 36h9" />
<path stroke="#c4c6ff" d="M41 23h3M40 24h3M39 25h3M38 26h3M36 27h4M37 28h2M30 33h1M29 34h2M28 35h2M27 36h2" />
</svg>